<svg width="31" height="30" viewBox="0 0 31 30" fill="none" xmlns="http://www.w3.org/2000/svg">
<path d="M25.4914 20.983C25.4914 23.1936 23.6936 24.9914 21.483 24.9914H9.5168C7.30628 24.9914 5.5084 23.1936 5.5084 20.983V9.0168C5.5084 6.80628 7.30628 5.0084 9.5168 5.0084H12.9946V1H9.5168C5.09577 1 1.5 4.59577 1.5 9.0168V20.9536C1.5 25.3746 5.09577 28.9704 9.5168 28.9704H21.4536C25.8746 28.9704 29.4704 25.3746 29.4704 20.9536V17.5052H25.4913L25.4914 20.983Z" fill="#3C3C3B" fill-opacity="0.8"/>
<path d="M27.4959 1H17.4455V5.0084H22.6623L11.5803 16.0904C10.7844 16.8567 10.7844 18.1535 11.5803 18.92C11.9635 19.3032 12.4939 19.5094 12.995 19.5094C13.496 19.5094 14.0266 19.303 14.4096 18.92L25.4917 7.83796V13.0548H29.5001L29.5003 3.00436C29.5003 1.88452 28.616 1.00026 27.4962 1.00026L27.4959 1Z" fill="#3C3C3B" fill-opacity="0.8"/>
</svg>
